# xmcd
#
# Track frame offsets:
#	150
#	19307
#	36749
#	56531
#	80012
#	103334
#	120084
#	139113
#	162992
#	181478
#	202622
#	218242
#
# Disc length: 3167 seconds
# Revision: 0
# Processed by: cddbd v1.5.2PL0 Copyright (c) Steve Scherf et al.
# Submitted via: dBpowerAMP V12.0
#
DISCID=a80c5d0c
DTITLE=Erin McDermott - Time To Go
DYEAR=2010
DGENRE=Folk
TTITLE0=Going Home
TTITLE1=From Me
TTITLE2=Time To Go
TTITLE3=Fowler Farm
TTITLE4=Truth Of Suffering
TTITLE5=Already Leaving
TTITLE6=Sometimes
TTITLE7=Louise 
TTITLE8=Before Love Passes Us By
TTITLE9=Weeping Willow
TTITLE10=40 Acre Holocaust
TTITLE11=Baker Street
EXTD=
EXTT0=
EXTT1=
EXTT2=
EXTT3=
EXTT4=
EXTT5=
EXTT6=
EXTT7=
EXTT8=
EXTT9=
EXTT10=
EXTT11=
PLAYORDER=
